<svg data-v-423bf9ae="" xmlns="http://www.w3.org/2000/svg" viewBox="0 0 484 186" class="iconLeft"><!----><!----><!----><g data-v-423bf9ae="" id="20e98481-e149-462f-8f34-d88d44fffb98" fill="white" transform="matrix(5.813953123029061,0,0,5.813953123029061,334.008480132292,22.070124677522543)"><path d="M7.79 8.38L6.45 9.42L6.21 9.34L6.21 9.34Q6.11 8.58 5.63 8.04L5.63 8.04L5.63 8.04Q5.15 7.50 4.34 7.50L4.34 7.50L4.34 7.50Q3.68 7.50 3.28 7.91L3.28 7.91L3.28 7.91Q2.88 8.32 2.88 8.91L2.88 8.91L2.88 8.91Q2.88 9.26 3.02 9.57L3.02 9.57L3.02 9.57Q3.16 9.88 3.35 10.11L3.35 10.11L3.35 10.11Q3.54 10.33 3.87 10.56L3.87 10.56L3.87 10.56Q4.20 10.79 4.44 10.93L4.44 10.93L4.44 10.93Q4.69 11.07 5.08 11.27L5.08 11.27L5.08 11.27Q5.63 11.55 6.00 11.76L6.00 11.76L6.00 11.76Q6.36 11.97 6.72 12.24L6.72 12.24L6.72 12.24Q7.09 12.52 7.29 12.78L7.29 12.78L7.29 12.78Q7.50 13.04 7.63 13.38L7.63 13.38L7.63 13.38Q7.76 13.72 7.76 14.11L7.76 14.11L7.76 14.11Q7.76 14.80 7.37 15.41L7.37 15.41L7.37 15.41Q6.97 16.02 6.35 16.42L6.35 16.42L6.35 16.42Q5.73 16.82 4.97 17.06L4.97 17.06L4.97 17.06Q4.21 17.29 3.47 17.29L3.47 17.29L3.47 17.29Q2.61 17.29 1.87 16.92L1.87 16.92L1.87 16.92Q1.12 16.56 0.64 15.87L0.64 15.87L2.00 14.35L2.27 14.44L2.27 14.44Q2.27 15.29 2.83 15.94L2.83 15.94L2.83 15.94Q3.38 16.60 4.27 16.60L4.27 16.60L4.27 16.60Q5.01 16.60 5.54 16.07L5.54 16.07L5.54 16.07Q6.06 15.55 6.06 14.88L6.06 14.88L6.06 14.88Q6.06 14.24 5.30 13.54L5.30 13.54L5.30 13.54Q5.09 13.33 4.67 13.08L4.67 13.08L4.67 13.08Q4.25 12.83 3.82 12.62L3.82 12.62L3.82 12.62Q3.40 12.40 2.94 12.10L2.94 12.10L2.94 12.10Q2.48 11.79 2.14 11.48L2.14 11.48L2.14 11.48Q1.79 11.18 1.56 10.74L1.56 10.74L1.56 10.74Q1.33 10.29 1.33 9.81L1.33 9.81L1.33 9.81Q1.33 9.08 1.64 8.51L1.64 8.51L1.64 8.51Q1.95 7.95 2.47 7.62L2.47 7.62L2.47 7.62Q2.99 7.29 3.63 7.13L3.63 7.13L3.63 7.13Q4.26 6.97 4.97 6.97L4.97 6.97L4.97 6.97Q6.09 6.97 6.78 7.29L6.78 7.29L6.78 7.29Q7.47 7.62 7.79 8.38L7.79 8.38ZM13.17 13.36L13.17 12.84L17.93 12.67L17.93 12.67Q17.86 13.58 17.86 14.31L17.86 14.31L17.86 14.31Q17.86 15.26 17.96 16.58L17.96 16.58L17.96 16.58Q16.65 16.93 15.67 17.11L15.67 17.11L15.67 17.11Q14.68 17.29 13.71 17.29L13.71 17.29L13.71 17.29Q11.53 17.29 10.29 16.14L10.29 16.14L10.29 16.14Q8.86 14.85 8.86 12.41L8.86 12.41L8.86 12.41Q8.86 11.28 9.24 10.27L9.24 10.27L9.24 10.27Q9.62 9.26 10.42 8.52L10.42 8.52L10.42 8.52Q11.20 7.83 12.27 7.50L12.27 7.50L12.27 7.50Q13.34 7.16 14.54 7.16L14.54 7.16L14.54 7.16Q17.31 7.16 18.22 8.90L18.22 8.90L16.86 10.16L16.61 10.05L16.61 10.05Q16.47 9.60 16.27 9.23L16.27 9.23L16.27 9.23Q16.06 8.86 15.77 8.53L15.77 8.53L15.77 8.53Q15.48 8.20 15.05 8.02L15.05 8.02L15.05 8.02Q14.62 7.83 14.11 7.83L14.11 7.83L14.11 7.83Q13.40 7.83 12.83 8.11L12.83 8.11L12.83 8.11Q12.26 8.38 11.91 8.81L11.91 8.81L11.91 8.81Q11.56 9.25 11.32 9.83L11.32 9.83L11.32 9.83Q11.09 10.41 11.00 10.98L11.00 10.98L11.00 10.98Q10.90 11.55 10.90 12.15L10.90 12.15L10.90 12.15Q10.90 12.80 11.03 13.41L11.03 13.41L11.03 13.41Q11.15 14.01 11.44 14.59L11.44 14.59L11.44 14.59Q11.73 15.17 12.16 15.60L12.16 15.60L12.16 15.60Q12.60 16.02 13.27 16.28L13.27 16.28L13.27 16.28Q13.95 16.54 14.78 16.54L14.78 16.54L14.78 16.54Q15.44 16.54 15.76 16.50L15.76 16.50L15.76 16.50Q15.89 16.49 15.98 16.41L15.98 16.41L15.98 16.41Q16.06 16.33 16.08 16.16L16.08 16.16L16.08 16.16Q16.11 15.99 16.12 15.86L16.12 15.86L16.12 15.86Q16.12 15.73 16.11 15.45L16.11 15.45L16.11 15.45Q16.10 15.18 16.10 15.05L16.10 15.05L16.10 13.99L16.10 13.99Q16.08 13.88 16.05 13.81L16.05 13.81L16.05 13.81Q16.02 13.73 15.96 13.68L15.96 13.68L15.96 13.68Q15.89 13.62 15.81 13.59L15.81 13.59L15.81 13.59Q15.74 13.55 15.59 13.52L15.59 13.52L15.59 13.52Q15.45 13.49 15.31 13.48L15.31 13.48L15.31 13.48Q15.17 13.47 14.93 13.46L14.93 13.46L14.93 13.46Q14.68 13.45 14.45 13.44L14.45 13.44L14.45 13.44Q14.23 13.43 13.87 13.41L13.87 13.41L13.87 13.41Q13.51 13.38 13.17 13.36L13.17 13.36ZM22.13 16.77L22.13 16.77L20.34 17.26L20.17 17.14L20.17 17.14Q20.35 12.58 20.35 10.08L20.35 10.08L20.35 10.08Q20.35 8.61 20.28 8.37L20.28 8.37L20.28 8.37Q20.23 8.18 20.09 8.05L20.09 8.05L20.09 8.05Q19.96 7.92 19.75 7.86L19.75 7.86L19.75 7.86Q19.53 7.79 19.38 7.77L19.38 7.77L19.38 7.77Q19.23 7.74 18.96 7.71L18.96 7.71L18.96 7.43L19.07 7.31L19.07 7.31Q24.66 7.31 25.71 7.21L25.71 7.21L25.71 8.16L25.61 8.27L25.61 8.27Q25.00 8.24 24.23 8.19L24.23 8.19L24.23 8.19Q23.46 8.13 23.00 8.10L23.00 8.10L23.00 8.10Q22.54 8.07 22.45 8.07L22.45 8.07L22.45 8.07Q22.24 8.07 22.14 8.17L22.14 8.17L22.14 8.17Q22.05 8.26 22.05 8.57L22.05 8.57L22.05 11.28L22.05 11.28Q22.05 11.43 22.11 11.54L22.11 11.54L22.11 11.54Q22.17 11.64 22.28 11.64L22.28 11.64L22.28 11.64Q22.89 11.64 24.05 11.53L24.05 11.53L24.05 11.53Q25.22 11.42 25.43 11.41L25.43 11.41L25.61 11.57L25.61 12.33L25.61 12.33Q24.79 12.29 22.39 12.29L22.39 12.29L22.39 12.29Q22.20 12.29 22.12 12.37L22.12 12.37L22.12 12.37Q22.05 12.44 22.05 12.67L22.05 12.67L22.05 12.82L22.05 12.82Q22.05 12.98 22.06 13.25L22.06 13.25L22.06 13.25Q22.07 13.51 22.07 13.85L22.07 13.85L22.07 13.85Q22.08 14.19 22.09 14.58L22.09 14.58L22.09 14.58Q22.10 14.98 22.11 15.36L22.11 15.36L22.11 15.36Q22.11 15.74 22.12 16.11L22.12 16.11L22.12 16.11Q22.13 16.49 22.13 16.77Z"></path></g><!----><g data-v-423bf9ae="" id="abe55e57-69a4-4c57-8974-eafd79d43f6e" transform="matrix(1.434444342719184,0,0,1.434444342719184,182.09249839782714,66.2607310375632)" stroke="none" fill="white"><path d="M-99.2-33.7l-3.7 5.7c-5-4.8-10.8-8.8-17.2-11.9l3.3-5.2c.3-.4.7-.6 1.1-.6.2 0 .5.1.7.2l15.3 9.9c.8.4.9 1.3.5 1.9z"></path><path d="M-126.4-42.7h-.1.1zM-126.5-42.7c.1 0 .1 0 0 0z"></path><g><path d="M18.1 50.4c-4.9 0-8.9 1.3-11.1 3.5-1.3 1.3-2 2.8-2 4.5v17c0 4.7 5.4 8 13.1 8 7.7 0 13.1-3.3 13.1-8v-17 0c0-1.7-.7-3.2-2-4.5-2.2-2.2-6.2-3.5-11.1-3.5zm9.5 24.9c0 2.4-4.2 4.3-9.5 4.3s-9.5-1.9-9.5-4.3v-2.7c2.3 1.4 5.6 2.2 9.5 2.2s7.1-.8 9.5-2.2v2.7zm0-8.5c0 2.4-4.2 4.3-9.5 4.3s-9.5-1.9-9.5-4.3v-2.7c2.3 1.4 5.6 2.2 9.5 2.2 3.9 0 7.1-.8 9.5-2.2v2.7zm0-8.4v.7c0 .1-.1.3-.2.4 0 .1-.1.1-.1.2-.1.1-.2.2-.2.3l-.3.3-.2.2c-.1.1-.2.2-.4.3-1.7 1.2-4.6 2-8 2-4.9 0-8.9-1.7-9.4-3.8v-.1-.4c0-2.4 4.2-4.3 9.5-4.3 5.1-.1 9.3 1.8 9.3 4.2zM50 33.5c-4.9 0-8.9 1.3-11.1 3.5-1.3 1.3-2 2.8-2 4.5v33.9c0 4.7 5.4 8 13.1 8 7.7 0 13.1-3.3 13.1-8V67v-8.5-17.1 0c0-1.7-.7-3.2-2-4.5-2.2-2.1-6.2-3.4-11.1-3.4zm9.5 41.8c0 2.4-4.2 4.3-9.5 4.3s-9.5-1.9-9.5-4.3v-2.7c2.3 1.4 5.6 2.2 9.5 2.2s7.1-.8 9.5-2.2v2.7zm0-8.5c0 2.4-4.2 4.3-9.5 4.3s-9.5-1.9-9.5-4.3v-2.7c2.3 1.4 5.6 2.2 9.5 2.2s7.1-.8 9.5-2.2v2.7zm0-8.4c0 2.4-4.2 4.3-9.5 4.3s-9.5-1.9-9.5-4.3v-2.7c2.3 1.4 5.6 2.2 9.5 2.2s7.1-.8 9.5-2.2v2.7zm0-8.5c0 2.4-4.2 4.3-9.5 4.3s-9.5-1.9-9.5-4.3v-2.7c2.3 1.4 5.6 2.2 9.5 2.2 3.9 0 7.1-.8 9.5-2.2v2.7zm0-8.4v.7c0 .1-.1.3-.2.4 0 .1-.1.1-.1.2-.1.1-.2.2-.2.3l-.3.3-.2.2c-.1.1-.2.2-.4.3-1.7 1.2-4.6 2-8 2-4.9 0-8.9-1.7-9.4-3.8V42v-.4c0-2.4 4.2-4.3 9.5-4.3 5-.1 9.3 1.8 9.3 4.2zM95 24.7c0-1.7-.7-3.2-2-4.5-2.2-2.2-6.2-3.5-11.1-3.5-4.9 0-8.9 1.3-11.1 3.5-1.3 1.2-2 2.8-2 4.5v50.7c0 4.7 5.4 8 13.1 8 7.7 0 13.1-3.3 13.1-8V67v-8.5V50 24.7zm-3.7 50.6c0 2.4-4.2 4.3-9.5 4.3s-9.5-1.9-9.5-4.3v-2.7c2.3 1.4 5.6 2.2 9.5 2.2s7.1-.8 9.5-2.2v2.7zm0-8.5c0 2.4-4.2 4.3-9.5 4.3s-9.5-1.9-9.5-4.3v-2.7c2.3 1.4 5.6 2.2 9.5 2.2s7.1-.8 9.5-2.2v2.7zm0-8.4c0 2.4-4.2 4.3-9.5 4.3s-9.5-1.9-9.5-4.3v-2.7c2.3 1.4 5.6 2.2 9.5 2.2s7.1-.8 9.5-2.2v2.7zm0-8.5c0 2.4-4.2 4.3-9.5 4.3s-9.5-1.9-9.5-4.3v-2.7c2.3 1.4 5.6 2.2 9.5 2.2s7.1-.8 9.5-2.2v2.7zm0-8.4c0 2.4-4.2 4.3-9.5 4.3s-9.5-1.9-9.5-4.3v-2.7c2.3 1.4 5.6 2.2 9.5 2.2s7.1-.8 9.5-2.2v2.7zm0-8.4c0 2.4-4.2 4.3-9.5 4.3s-9.5-1.9-9.5-4.3v-2.6c2.3 1.4 5.6 2.2 9.5 2.2 3.9 0 7.1-.8 9.5-2.2v2.6zm0-8.4v.7c0 .1-.1.3-.2.4 0 .1-.1.1-.1.2-.1.1-.2.2-.2.3l-.3.3-.2.2c-.1.1-.2.2-.4.3-1.7 1.2-4.6 2-8 2-4.9 0-8.9-1.7-9.4-3.8v-.1-.4c0-2.4 4.2-4.3 9.5-4.3 5.1-.1 9.3 1.8 9.3 4.2z"></path></g></g><!----></svg>