<svg data-v-423bf9ae="" xmlns="http://www.w3.org/2000/svg" viewBox="0 0 271 90" class="iconLeft"><!----><!----><!----><g data-v-423bf9ae="" id="c87caf3c-c353-43cf-95d1-4fd720028f96" fill="#33406A" transform="matrix(5.934717742604922,0,0,5.934717742604922,118.73941704528877,-11.172104339321642)"><path d="M4.24 14.52C6.68 14.52 8.05 13.22 8.05 11.34C8.05 9.66 7.08 8.76 5.08 8.44L4.12 8.29C3.30 8.16 2.95 7.91 2.95 7.24C2.95 6.65 3.42 6.29 4.37 6.29C5.38 6.29 6.01 6.66 6.47 7.21L7.88 5.78C7.08 4.90 5.96 4.41 4.49 4.41C2.20 4.41 0.83 5.63 0.83 7.38C0.83 9.02 1.76 10.02 3.82 10.29L4.79 10.42C5.70 10.54 5.92 10.93 5.92 11.47C5.92 12.18 5.42 12.64 4.38 12.64C3.43 12.64 2.59 12.26 1.93 11.52L0.53 12.94C1.37 13.86 2.53 14.52 4.24 14.52ZM11.94 14.35L11.94 10.35L15.65 10.35L15.65 8.47L11.94 8.47L11.94 6.47L16.30 6.47L16.30 4.58L9.81 4.58L9.81 14.35ZM23.79 14.35L25.58 14.35L25.58 8.90L21.73 8.90L21.73 10.68L23.55 10.68L23.55 11.17C23.55 12.12 22.69 12.63 21.63 12.63C20.31 12.63 19.46 11.87 19.46 10.25L19.46 8.68C19.46 7.06 20.31 6.30 21.63 6.30C22.76 6.30 23.37 6.92 23.66 7.67L25.40 6.68C24.67 5.18 23.37 4.41 21.63 4.41C18.98 4.41 17.21 6.22 17.21 9.51C17.21 12.78 18.97 14.52 21.21 14.52C22.68 14.52 23.58 13.78 23.72 12.80L23.79 12.80Z"></path></g><!----><g data-v-423bf9ae="" id="4c9b167a-1a5b-4008-85ff-e41e5e1448e4" transform="matrix(1.0471203630792714,0,0,1.0471203630792714,-1.0036635010370176,-6.329842339336238)" stroke="none" fill="#EE714E"><path d="M97.2 43.7c.9.7 1.4 1.8 1.4 2.9v9.2H73.4V43c0-2-.8-3.9-2.2-5.4 1-.5 1.6-.9 2-1 .1-.1.2-.2.2-.3v-2.8c-.7-1.2-1.1-2.6-1.3-3.8-.4 0-1-.6-1.6-2.8-.8-2.7 0-3.3.7-3.3h.1c-.5-1.5-.6-3-.2-4.4.4-1.6 1.3-2.9 2.3-4 .6-.7 1.3-1.3 2.1-1.7.6-.4 1.3-.8 2-1 .6-.2 1.2-.3 1.8-.4h.8c1.6 0 2.9.5 3.8 1 1.6.9 2.3 2.1 2.3 2.1s4.1.3 2.3 8.9c.6.2.9 1 .3 3.2-.6 2.2-1.2 2.8-1.6 2.8-.1 0-.2 0-.3-.1-.2 1-.5 2-.9 3v3.2c0 .1.1.3.2.3 1 .6 6.2 3.3 11 7.2zm-83.4-7.1c-1 .5-6.3 3.1-11.1 7.1-.9.7-1.4 1.8-1.4 2.9v9.2h25.2V43c0-2 .8-3.9 2.2-5.4-1-.5-1.6-.9-2-1-.1-.1-.2-.2-.2-.3v-3.2c.5-1 .8-2.1.9-3 .1.1.2.1.3.1.4 0 1-.6 1.6-2.8.6-2.3.3-3-.3-3.2 1.8-8.6-2.3-8.9-2.3-8.9s-.6-1.2-2.3-2.1c-.9-.6-2.2-1-3.8-1h-.8c-.7 0-1.3.2-1.8.4-.7.3-1.4.6-2 1-.8.5-1.5 1.1-2.1 1.7-1 1-1.9 2.3-2.3 4-.4 1.4-.4 2.9.2 4.4h-.1c-.7 0-1.4.5-.7 3.3.6 2.1 1.2 2.7 1.6 2.8.2 1.2.6 2.6 1.3 3.8v2.8c.1.1.1.2-.1.2zM70 84.3l-.8-8.3c0-.3-.4-.4-.6-.2l-1.9 1.9-3.8-3.7c-1 1.4-2.3 2.7-3.7 3.7l3.7 3.7-1.9 1.9c-.2.2-.1.6.2.6l8.3.8c.3.1.5-.1.5-.4zM28.5 70.4c.2.2.6 0 .6-.3v-2.7h5.3c-.1-.8-.2-1.7-.2-2.6 0-.9.1-1.7.2-2.6H29v-2.7c0-.3-.3-.5-.6-.3L22 64.5c-.2.2-.2.5 0 .7l6.5 5.2zm43-11.2c-.2-.2-.6 0-.6.3v2.7h-5.3c.1.8.2 1.7.2 2.6 0 .9-.1 1.7-.2 2.6H71v2.7c0 .3.3.5.6.3l6.4-5.3c.2-.2.2-.5 0-.7l-6.5-5.2zm-41 25.6l8.3-.8c.3 0 .4-.4.2-.6l-2-2 3.7-3.7c-1.4-1-2.7-2.3-3.7-3.7l-3.7 3.7-1.9-1.9c-.2-.2-.6-.1-.6.2l-.8 8.3c0 .3.2.5.5.5zM50 80.7c-.9 0-1.7-.1-2.6-.2v5.3h-2.7c-.3 0-.5.3-.3.6l5.3 6.4c.2.2.5.2.7 0l5.3-6.4c.2-.2 0-.6-.3-.6h-2.7v-5.3c-1 .1-1.8.2-2.7.2zm6.8-70.4s-.6-1.2-2.4-2.2c-1-.6-2.3-1.1-4-1.1h-.8c-.7 0-1.3.2-1.9.4-.8.3-1.5.6-2.1 1.1-.8.5-1.5 1.1-2.2 1.8-1 1.1-2 2.4-2.4 4.1-.4 1.4-.4 3 .2 4.6h-.1c-.7 0-1.5.6-.7 3.4.6 2.2 1.2 2.8 1.7 2.9.2 1.3.6 2.7 1.3 4v2.9c0 .1-.1.3-.2.3-1.1.5-6.5 3.3-11.5 7.4-.9.7-1.4 1.9-1.4 3v12.8h6.4c2.9-4.3 7.8-7.1 13.3-7.1s10.4 2.8 13.3 7.1h6.4V43c0-1.2-.5-2.3-1.4-3-5-4.1-10.5-6.9-11.6-7.4-.1-.1-.2-.2-.2-.3v-3.4c.5-1 .8-2.1 1-3.1.1.1.2.1.3.1.4 0 1-.6 1.7-2.9.7-2.4.3-3.2-.3-3.4 1.9-9-2.4-9.3-2.4-9.3zM50 77.6c-7 0-12.7-5.7-12.7-12.8S43 52 50 52s12.7 5.7 12.7 12.8S57 77.6 50 77.6zm4.8-7.1c-.2-.4-.3-.8-.5-1.2-.2-.3-.4-.5-.7-.4-.5.1-1 .3-1.4.4-.9.2-1.9.2-2.8-.1-1.1-.4-1.8-1.2-2.1-2.3h3.1c.2 0 .4-.2.4-.4v-1c0-.2-.2-.4-.4-.4H47v-.8h3.4c.2 0 .4-.2.4-.4v-1c0-.2-.2-.4-.4-.4h-3c.4-.8.9-1.5 1.7-1.8 1-.4 2-.4 3-.2.5.1 1 .3 1.5.4.4.1.6 0 .7-.4.2-.4.3-.8.5-1.2.2-.4.1-.6-.3-.8-.1-.1-.2-.1-.3-.1-1.4-.6-2.9-.8-4.5-.5-1.1.2-2.1.5-3 1.2-1.1.9-1.8 2-2.2 3.3l-.1.2H43c-.2 0-.4.2-.4.4v1c0 .2.2.4.4.4h1.2v.8H43c-.2 0-.4.2-.4.4v1c0 .2.2.4.4.4h1.5c.1.4.2.7.3 1.1.7 1.8 2 3.1 3.8 3.7 1.5.5 3.1.5 4.6.1.4-.1.8-.3 1.2-.4.4-.4.5-.7.4-1z"></path></g><!----></svg>