<svg data-v-fde0c5aa="" xmlns="http://www.w3.org/2000/svg" viewBox="0 0 300 300" class="font"><!----><defs data-v-fde0c5aa=""><!----></defs><rect data-v-fde0c5aa="" fill="#FFFFFF" x="0" y="0" width="300px" height="300px" class="logo-background-square"></rect><defs data-v-fde0c5aa=""><!----></defs><g data-v-fde0c5aa="" id="885ad7bf-5e7a-4be4-a62b-0e1ddb70cc57" fill="#33406A" transform="matrix(8.78243539722421,0,0,8.78243539722421,35.34530949073866,66.87424762517955)"><path d="M4.24 14.52C6.68 14.52 8.05 13.22 8.05 11.34C8.05 9.66 7.08 8.76 5.08 8.44L4.12 8.29C3.30 8.16 2.95 7.91 2.95 7.24C2.95 6.65 3.42 6.29 4.37 6.29C5.38 6.29 6.01 6.66 6.47 7.21L7.88 5.78C7.08 4.90 5.96 4.41 4.49 4.41C2.20 4.41 0.83 5.63 0.83 7.38C0.83 9.02 1.76 10.02 3.82 10.29L4.79 10.42C5.70 10.54 5.92 10.93 5.92 11.47C5.92 12.18 5.42 12.64 4.38 12.64C3.43 12.64 2.59 12.26 1.93 11.52L0.53 12.94C1.37 13.86 2.53 14.52 4.24 14.52ZM11.94 14.35L11.94 10.35L15.65 10.35L15.65 8.47L11.94 8.47L11.94 6.47L16.30 6.47L16.30 4.58L9.81 4.58L9.81 14.35ZM23.79 14.35L25.58 14.35L25.58 8.90L21.73 8.90L21.73 10.68L23.55 10.68L23.55 11.17C23.55 12.12 22.69 12.63 21.63 12.63C20.31 12.63 19.46 11.87 19.46 10.25L19.46 8.68C19.46 7.06 20.31 6.30 21.63 6.30C22.76 6.30 23.37 6.92 23.66 7.67L25.40 6.68C24.67 5.18 23.37 4.41 21.63 4.41C18.98 4.41 17.21 6.22 17.21 9.51C17.21 12.78 18.97 14.52 21.21 14.52C22.68 14.52 23.58 13.78 23.72 12.80L23.79 12.80Z"></path></g><!----><!----></svg>