<?xml version="1.0" encoding="UTF-8"?>
<svg id="Layer_1" data-name="Layer 1" xmlns="http://www.w3.org/2000/svg" viewBox="0 0 424.44 144">
  <defs>
    <style>
      .cls-1 {
        letter-spacing: .22em;
      }

      .cls-2 {
        letter-spacing: .22em;
      }

      .cls-3 {
        letter-spacing: .21em;
      }

      .cls-4 {
        fill: #f69014;
      }

      .cls-5 {
        fill: #45b050;
      }

      .cls-6 {
        letter-spacing: .16em;
      }

      .cls-7 {
        fill: #14a888;
      }

      .cls-8 {
        letter-spacing: .21em;
      }

      .cls-9 {
        letter-spacing: .2em;
      }

      .cls-10 {
        letter-spacing: .19em;
      }

      .cls-11 {
        letter-spacing: .2em;
      }

      .cls-12 {
        letter-spacing: .19em;
      }

      .cls-13 {
        letter-spacing: .21em;
      }

      .cls-14 {
        fill: #4db954;
      }

      .cls-15 {
        letter-spacing: .19em;
      }

      .cls-16 {
        letter-spacing: .16em;
      }

      .cls-17 {
        fill: #c31e24;
      }

      .cls-18 {
        letter-spacing: .19em;
      }

      .cls-19 {
        font-family: AuliaGrotesk, 'Aulia Grotesk';
        font-size: 25.77px;
        stroke: #000;
        stroke-miterlimit: 10;
        stroke-width: 2px;
      }
    </style>
  </defs>
  <g>
    <rect class="cls-4" x="44.34" y="47.52" width="8.88" height="70.08" rx="4.44" ry="4.44"/>
    <rect class="cls-14" x="93.84" y="37.08" width="8.88" height="70.08" rx="4.44" ry="4.44"/>
    <rect class="cls-17" x="61.35" y="67.65" width="8.88" height="56.99" rx="4.44" ry="4.44" transform="translate(87.26 -18.36) rotate(45)"/>
    <path class="cls-4" d="M46.9,49.72h0c1.73-1.73,4.55-1.73,6.28,0l9.05,8.17c1.73,1.73,1.73,4.55,0,6.28h0c-1.73,1.73-4.55,1.73-6.28,0l-9.05-8.17c-1.73-1.73-1.73-4.55,0-6.28Z"/>
    <path class="cls-5" d="M85.69,91.41h0c1.73-1.73,4.55-1.73,6.28,0l9.05,8.17c1.73,1.73,1.73,4.55,0,6.28h0c-1.73,1.73-4.55,1.73-6.28,0l-9.05-8.17c-1.73-1.73-1.73-4.55,0-6.28Z"/>
    <rect class="cls-7" x="76.47" y="29.85" width="8.88" height="56.99" rx="4.44" ry="4.44" transform="translate(64.96 -40.12) rotate(45)"/>
  </g>
  <rect x="130.59" y="43.82" width="2.16" height="66.85"/>
  <text class="cls-19" transform="translate(152.44 72.59)"><tspan class="cls-6" x="0" y="0">S</tspan><tspan class="cls-1" x="20.97" y="0">Y</tspan><tspan class="cls-2" x="40.71" y="0">S</tspan><tspan class="cls-8" x="63.34" y="0">C</tspan><tspan class="cls-11" x="87.29" y="0">O G</tspan><tspan class="cls-16" x="149.07" y="0">L</tspan><tspan class="cls-12" x="166.47" y="0">O</tspan><tspan class="cls-3" x="191.32" y="0">B</tspan><tspan class="cls-10" x="213.76" y="0">A</tspan><tspan class="cls-9" x="236.64" y="0">L</tspan><tspan class="cls-9" x="0" y="30.93">F</tspan><tspan class="cls-13" x="19.01" y="30.93">I</tspan><tspan class="cls-11" x="30.89" y="30.93">N</tspan><tspan class="cls-18" x="54.63" y="30.93">A</tspan><tspan class="cls-11" x="77.5" y="30.93">N</tspan><tspan class="cls-15" x="101.24" y="30.93">C</tspan><tspan class="cls-11" x="124.56" y="30.93">E</tspan></text>
</svg>