<svg data-v-423bf9ae="" xmlns="http://www.w3.org/2000/svg" viewBox="0 0 604 90" class="iconLeft"><!----><!----><!----><g data-v-423bf9ae="" id="d88ed8f5-32e2-4db7-82aa-495e819ad579" fill="#6366f1 " transform="matrix(5.92300092025334,0,0,5.92300092025334,103.17079703282161,-3.0059220947884384)"><path d="M2.89 3.74L2.89 7.68L4.61 7.68L4.61 7.68Q4.90 7.68 5.17 7.50L5.17 7.50L5.17 7.50Q5.44 7.33 5.68 7L5.68 7L5.68 7Q5.89 6.69 6.01 6.36L6.01 6.36L6.01 6.36Q6.13 6.03 6.13 5.71L6.13 5.71L6.13 5.71Q6.13 4.93 5.67 4.33L5.67 4.33L5.67 4.33Q5.20 3.73 4.46 3.73L4.46 3.73L2.89 3.74ZM0.47 13.01L0.47 12.30L1.16 12.31L1.16 3.74L0.47 3.74L0.47 3.04L4.66 3.04L4.66 3.04Q5.29 3.04 5.84 3.20L5.84 3.20L5.84 3.20Q6.39 3.37 6.84 3.68L6.84 3.68L6.84 3.68Q7.33 4.05 7.59 4.56L7.59 4.56L7.59 4.56Q7.86 5.07 7.86 5.70L7.86 5.70L7.86 5.70Q7.86 6.28 7.62 6.77L7.62 6.77L7.62 6.77Q7.38 7.27 6.94 7.66L6.94 7.66L6.94 7.66Q6.51 8.01 5.99 8.21L5.99 8.21L5.99 8.21Q5.47 8.40 4.89 8.40L4.89 8.40L2.89 8.40L2.89 12.30L3.63 12.30L3.63 13.01L0.47 13.01ZM8.63 6.27L10.91 6.27L10.91 10.21L10.91 10.21Q10.91 12.49 12.26 12.49L12.26 12.49L12.26 12.49Q12.99 12.49 13.64 11.72L13.64 11.72L13.64 6.93L12.95 6.93L12.95 6.27L15.23 6.27L15.23 12.35L15.92 12.35L15.92 13.01L13.64 13.01L13.64 12.64L13.64 12.64Q13.29 12.89 12.89 13.03L12.89 13.03L12.89 13.03Q12.49 13.17 12.04 13.17L12.04 13.17L12.04 13.17Q10.71 13.17 9.99 12.35L9.99 12.35L9.99 12.35Q9.32 11.59 9.32 10.25L9.32 10.25L9.32 6.93L8.63 6.93L8.63 6.27ZM17.16 6.53L18.92 6.53L18.92 12.61L19.59 12.61L19.59 12.74L17.16 12.74L17.16 12.61L17.86 12.61L17.86 6.67L17.16 6.67L17.16 6.53ZM17.49 4.03L17.49 4.03L17.49 4.03Q17.49 3.84 17.56 3.68L17.56 3.68L17.56 3.68Q17.64 3.51 17.76 3.39L17.76 3.39L17.76 3.39Q17.88 3.27 18.04 3.20L18.04 3.20L18.04 3.20Q18.20 3.12 18.39 3.12L18.39 3.12L18.39 3.12Q18.57 3.12 18.74 3.20L18.74 3.20L18.74 3.20Q18.90 3.27 19.02 3.39L19.02 3.39L19.02 3.39Q19.14 3.51 19.21 3.68L19.21 3.68L19.21 3.68Q19.28 3.84 19.28 4.03L19.28 4.03L19.28 4.03Q19.28 4.21 19.21 4.38L19.21 4.38L19.21 4.38Q19.14 4.54 19.02 4.66L19.02 4.66L19.02 4.66Q18.90 4.78 18.74 4.85L18.74 4.85L18.74 4.85Q18.57 4.92 18.39 4.92L18.39 4.92L18.39 4.92Q18.20 4.92 18.04 4.85L18.04 4.85L18.04 4.85Q17.88 4.78 17.76 4.66L17.76 4.66L17.76 4.66Q17.64 4.54 17.56 4.38L17.56 4.38L17.56 4.38Q17.49 4.21 17.49 4.03ZM28.29 13.01L25.32 13.01L25.32 12.35L26.00 12.35L26.00 9.06L26.00 9.06Q26.00 6.78 24.65 6.78L24.65 6.78L24.65 6.78Q23.93 6.78 23.28 7.55L23.28 7.55L23.28 12.35L23.97 12.35L23.97 13.01L20.99 13.01L20.99 12.35L21.68 12.35L21.68 6.93L20.99 6.93L20.99 6.27L23.28 6.27L23.28 6.64L23.28 6.64Q23.63 6.38 24.02 6.24L24.02 6.24L24.02 6.24Q24.42 6.10 24.88 6.10L24.88 6.10L24.88 6.10Q26.20 6.10 26.92 6.92L26.92 6.92L26.92 6.92Q27.60 7.70 27.60 9.02L27.60 9.02L27.60 12.35L28.29 12.35L28.29 13.01ZM29.85 6.93L29.12 6.93L29.12 6.27L31.95 6.27L31.95 6.93L31.48 6.93L31.48 6.93Q31.68 7.44 31.86 7.92L31.86 7.92L31.86 7.92Q32.05 8.39 32.22 8.86L32.22 8.86L32.22 8.86Q32.40 9.33 32.59 9.81L32.59 9.81L32.59 9.81Q32.77 10.29 32.98 10.81L32.98 10.81L32.98 10.81Q33.17 10.31 33.35 9.83L33.35 9.83L33.35 9.83Q33.54 9.35 33.72 8.88L33.72 8.88L33.72 8.88Q33.90 8.41 34.09 7.93L34.09 7.93L34.09 7.93Q34.28 7.44 34.47 6.93L34.47 6.93L34.02 6.93L34.02 6.27L35.92 6.27L35.92 6.93L35.19 6.93L35.19 6.93Q34.61 8.44 34.02 9.97L34.02 9.97L34.02 9.97Q33.42 11.50 32.84 13.01L32.84 13.01L32.21 13.01L29.85 6.93ZM38.26 8.84L41.19 8.84L41.19 8.84Q41.14 7.82 40.77 7.30L40.77 7.30L40.77 7.30Q40.39 6.79 39.71 6.79L39.71 6.79L39.71 6.79Q38.94 6.79 38.57 7.49L38.57 7.49L38.57 7.49Q38.42 7.75 38.35 8.08L38.35 8.08L38.35 8.08Q38.27 8.42 38.26 8.84L38.26 8.84ZM42.81 9.50L38.24 9.50L38.24 9.50Q38.23 9.65 38.24 9.73L38.24 9.73L38.24 9.73Q38.24 9.82 38.24 9.86L38.24 9.86L38.24 9.86Q38.24 12.43 40.09 12.43L40.09 12.43L40.09 12.43Q40.74 12.43 41.31 12.09L41.31 12.09L41.31 12.09Q41.58 11.92 41.80 11.65L41.80 11.65L41.80 11.65Q42.03 11.38 42.18 11.03L42.18 11.03L42.77 11.39L42.77 11.39Q42.59 11.85 42.27 12.20L42.27 12.20L42.27 12.20Q41.96 12.54 41.54 12.78L41.54 12.78L41.54 12.78Q41.17 12.97 40.73 13.07L40.73 13.07L40.73 13.07Q40.30 13.17 39.83 13.17L39.83 13.17L39.83 13.17Q39.03 13.17 38.42 12.89L38.42 12.89L38.42 12.89Q37.81 12.61 37.40 12.07L37.40 12.07L37.40 12.07Q37.04 11.59 36.86 10.93L36.86 10.93L36.86 10.93Q36.67 10.27 36.67 9.47L36.67 9.47L36.67 9.47Q36.67 7.98 37.41 7.07L37.41 7.07L37.41 7.07Q38.22 6.10 39.72 6.10L39.72 6.10L39.72 6.10Q40.45 6.10 41.01 6.33L41.01 6.33L41.01 6.33Q41.56 6.57 41.97 7.04L41.97 7.04L41.97 7.04Q42.72 7.91 42.81 9.50L42.81 9.50ZM44.55 11.08L44.55 11.44L44.55 11.44Q44.69 11.70 44.84 11.90L44.84 11.90L44.84 11.90Q44.99 12.11 45.14 12.22L45.14 12.22L45.14 12.22Q45.51 12.52 46.07 12.52L46.07 12.52L46.07 12.52Q46.61 12.52 47.00 12.20L47.00 12.20L47.00 12.20Q47.40 11.85 47.40 11.35L47.40 11.35L47.40 11.35Q47.40 11.07 47.17 10.83L47.17 10.83L47.17 10.83Q46.94 10.58 46.57 10.39L46.57 10.39L46.57 10.39Q46.35 10.29 46.14 10.21L46.14 10.21L46.14 10.21Q45.93 10.12 45.72 10.02L45.72 10.02L45.72 10.02Q45.50 9.93 45.28 9.84L45.28 9.84L45.28 9.84Q45.07 9.75 44.86 9.65L44.86 9.65L44.86 9.65Q43.87 9.05 43.87 8.00L43.87 8.00L43.87 8.00Q43.87 7.55 44.10 7.19L44.10 7.19L44.10 7.19Q44.32 6.82 44.73 6.54L44.73 6.54L44.73 6.54Q45.09 6.32 45.51 6.20L45.51 6.20L45.51 6.20Q45.93 6.08 46.40 6.08L46.40 6.08L46.40 6.08Q46.53 6.08 46.73 6.13L46.73 6.13L46.73 6.13Q46.94 6.17 47.18 6.25L47.18 6.25L47.18 6.25Q47.40 6.32 47.59 6.36L47.59 6.36L47.59 6.36Q47.78 6.40 47.89 6.40L47.89 6.40L47.89 6.40Q48.05 6.40 48.15 6.27L48.15 6.27L48.74 6.27L48.74 8.20L48.08 8.20L48.08 7.83L48.08 7.83Q47.52 6.76 46.63 6.76L46.63 6.76L46.63 6.76Q46.12 6.76 45.78 7.08L45.78 7.08L45.78 7.08Q45.45 7.38 45.45 7.89L45.45 7.89L45.45 7.89Q45.45 8.33 45.86 8.55L45.86 8.55L45.86 8.54L45.86 8.54Q45.96 8.60 46.35 8.75L46.35 8.75L46.35 8.75Q46.73 8.91 47.40 9.15L47.40 9.15L47.40 9.15Q48.92 9.73 48.92 11.25L48.92 11.25L48.92 11.25Q48.92 11.76 48.65 12.16L48.65 12.16L48.65 12.16Q48.39 12.55 47.94 12.80L47.94 12.80L47.94 12.80Q47.58 12.96 47.11 13.06L47.11 13.06L47.11 13.06Q46.63 13.17 46.12 13.17L46.12 13.17L46.12 13.17Q45.99 13.17 45.80 13.13L45.80 13.13L45.80 13.13Q45.62 13.10 45.38 13.02L45.38 13.02L45.38 13.02Q45.17 12.94 45.00 12.91L45.00 12.91L45.00 12.91Q44.84 12.88 44.74 12.88L44.74 12.88L44.74 12.88Q44.57 12.88 44.48 13.01L44.48 13.01L43.88 13.01L43.88 11.08L44.55 11.08ZM53.50 6.27L53.50 6.93L52.33 6.93L52.33 11.39L52.33 11.39Q52.33 11.99 52.54 12.15L52.54 12.15L52.54 12.15Q52.72 12.29 53.50 12.35L53.50 12.35L53.50 13.02L53.50 13.02Q52.83 13.00 52.39 12.95L52.39 12.95L52.39 12.95Q51.95 12.91 51.72 12.84L51.72 12.84L51.72 12.84Q50.74 12.53 50.74 11.55L50.74 11.55L50.74 6.93L49.70 6.93L49.70 6.27L49.70 6.27Q50.54 6.27 51.12 5.61L51.12 5.61L51.12 5.61Q51.37 5.33 51.56 4.97L51.56 4.97L51.56 4.97Q51.75 4.61 51.90 4.16L51.90 4.16L52.33 4.16L52.33 6.27L53.50 6.27ZM61.50 6.73L61.50 6.73L61.50 6.73Q61.34 6.73 61.16 6.81L61.16 6.81L61.16 6.81Q60.98 6.90 60.79 7.08L60.79 7.08L60.79 7.08Q60.42 7.43 60.40 7.81L60.40 7.81L60.40 7.81Q60.40 8.98 60.41 10.08L60.41 10.08L60.41 10.08Q60.41 11.18 60.41 12.35L60.41 12.35L61.10 12.35L61.10 13.01L58.13 13.01L58.13 12.35L58.82 12.35L58.82 8.67L58.82 8.67Q58.82 6.73 57.78 6.73L57.78 6.73L57.78 6.73Q57.50 6.73 57.11 7.05L57.11 7.05L57.11 7.05Q56.70 7.40 56.70 7.64L56.70 7.64L56.70 12.35L57.38 12.35L57.38 13.01L54.41 13.01L54.41 12.35L55.10 12.35L55.10 6.93L54.41 6.93L54.41 6.27L56.70 6.27L56.70 6.54L56.70 6.54Q56.97 6.33 57.30 6.22L57.30 6.22L57.30 6.22Q57.63 6.10 58.00 6.10L58.00 6.10L58.00 6.10Q58.65 6.10 59.17 6.32L59.17 6.32L59.17 6.32Q59.68 6.54 60.05 6.92L60.05 6.92L60.05 6.92Q60.61 6.10 61.74 6.10L61.74 6.10L61.74 6.10Q64.13 6.10 64.13 9.00L64.13 9.00L64.13 12.35L64.82 12.35L64.82 13.01L61.85 13.01L61.85 12.35L62.54 12.35L62.54 8.67L62.54 8.67Q62.54 6.73 61.50 6.73ZM67.44 8.84L70.38 8.84L70.38 8.84Q70.32 7.82 69.95 7.30L69.95 7.30L69.95 7.30Q69.58 6.79 68.89 6.79L68.89 6.79L68.89 6.79Q68.12 6.79 67.75 7.49L67.75 7.49L67.75 7.49Q67.61 7.75 67.53 8.08L67.53 8.08L67.53 8.08Q67.46 8.42 67.44 8.84L67.44 8.84ZM71.99 9.50L67.42 9.50L67.42 9.50Q67.42 9.65 67.42 9.73L67.42 9.73L67.42 9.73Q67.42 9.82 67.42 9.86L67.42 9.86L67.42 9.86Q67.42 12.43 69.28 12.43L69.28 12.43L69.28 12.43Q69.92 12.43 70.49 12.09L70.49 12.09L70.49 12.09Q70.76 11.92 70.98 11.65L70.98 11.65L70.98 11.65Q71.21 11.38 71.37 11.03L71.37 11.03L71.96 11.39L71.96 11.39Q71.77 11.85 71.46 12.20L71.46 12.20L71.46 12.20Q71.14 12.54 70.72 12.78L70.72 12.78L70.72 12.78Q70.35 12.97 69.91 13.07L69.91 13.07L69.91 13.07Q69.48 13.17 69.02 13.17L69.02 13.17L69.02 13.17Q68.22 13.17 67.60 12.89L67.60 12.89L67.60 12.89Q66.99 12.61 66.58 12.07L66.58 12.07L66.58 12.07Q66.23 11.59 66.04 10.93L66.04 10.93L66.04 10.93Q65.85 10.27 65.85 9.47L65.85 9.47L65.85 9.47Q65.85 7.98 66.60 7.07L66.60 7.07L66.60 7.07Q67.40 6.10 68.90 6.10L68.90 6.10L68.90 6.10Q69.63 6.10 70.19 6.33L70.19 6.33L70.19 6.33Q70.75 6.57 71.16 7.04L71.16 7.04L71.16 7.04Q71.90 7.91 71.99 9.50L71.99 9.50ZM80.29 13.01L77.32 13.01L77.32 12.35L78.00 12.35L78.00 9.06L78.00 9.06Q78.00 6.78 76.65 6.78L76.65 6.78L76.65 6.78Q75.93 6.78 75.28 7.55L75.28 7.55L75.28 12.35L75.97 12.35L75.97 13.01L72.99 13.01L72.99 12.35L73.68 12.35L73.68 6.93L72.99 6.93L72.99 6.27L75.28 6.27L75.28 6.64L75.28 6.64Q75.63 6.38 76.03 6.24L76.03 6.24L76.03 6.24Q76.43 6.10 76.88 6.10L76.88 6.10L76.88 6.10Q78.20 6.10 78.92 6.92L78.92 6.92L78.92 6.92Q79.60 7.70 79.60 9.02L79.60 9.02L79.60 12.35L80.29 12.35L80.29 13.01ZM84.55 6.27L84.55 6.93L83.38 6.93L83.38 11.39L83.38 11.39Q83.38 11.99 83.60 12.15L83.60 12.15L83.60 12.15Q83.77 12.29 84.55 12.35L84.55 12.35L84.55 13.02L84.55 13.02Q83.89 13.00 83.45 12.95L83.45 12.95L83.45 12.95Q83.00 12.91 82.78 12.84L82.78 12.84L82.78 12.84Q81.80 12.53 81.80 11.55L81.80 11.55L81.80 6.93L80.76 6.93L80.76 6.27L80.76 6.27Q81.59 6.27 82.17 5.61L82.17 5.61L82.17 5.61Q82.43 5.33 82.62 4.97L82.62 4.97L82.62 4.97Q82.81 4.61 82.95 4.16L82.95 4.16L83.38 4.16L83.38 6.27L84.55 6.27Z"></path></g><!----><g data-v-423bf9ae="" id="573dc038-0b72-4254-b41c-77760596e941" transform="matrix(1.9219270885138002,0,0,1.9219270885138002,-4.40926707125508,-2.462176550535574)" stroke="none" fill="#B33EB3"><path clip-rule="evenodd" d="M21.605 23.13h6.832a2.664 2.664 0 0 1 2.646 2.644v7.98H29.73v-6.635h-1.39v6.635h-6.533v-6.635H20.36v6.635h-1.398v-7.98a2.664 2.664 0 0 1 2.643-2.644zm3.444-7.033c1.691 0 3.142 1.396 3.142 3.144 0 1.746-1.451 3.141-3.142 3.141a3.127 3.127 0 0 1-3.144-3.141 3.129 3.129 0 0 1 3.144-3.144zm-1.545-11.32h3.089c.647 0 1.198.549 1.198 1.198v3.642H22.308V5.975a1.18 1.18 0 0 1 1.196-1.198zm1.545-3.191c.745 0 1.396.647 1.396 1.446s-.651 1.398-1.396 1.398c-.799 0-1.449-.599-1.449-1.397s.65-1.447 1.449-1.447zm10.572 6.137l2.543 1.843c.494.399.644 1.145.246 1.645l-2.092 2.943-.501-.35-.549-.398-2.394-1.745-.499-.347-.548-.403 2.146-2.892c.4-.547 1.148-.648 1.648-.296zm3.141-1.649c-.646-.499-1.497-.348-1.998.3-.445.649-.298 1.545.35 1.993.603.45 1.497.3 1.945-.299a1.385 1.385 0 0 0-.297-1.994zm4.987 11.172l.997 2.944c.195.645-.152 1.293-.797 1.545l-3.439 1.094-.152-.599-.201-.597-.948-2.791-.202-.601-.198-.649 3.442-1.096c.598-.199 1.297.15 1.498.75zm3.538.498a1.415 1.415 0 0 0-1.797-.899c-.744.25-1.143 1.049-.947 1.794a1.414 1.414 0 0 0 1.797.899c.746-.247 1.197-1.047.947-1.794zm-2.541 11.967l-.95 2.992c-.198.598-.897.948-1.493.749l-3.442-1.099.198-.595.149-.599.948-2.842.201-.602.197-.598 3.395 1.097c.645.203.992.899.797 1.497zm2.541 2.494a1.415 1.415 0 0 0-.896-1.795 1.417 1.417 0 0 0-1.798.898 1.417 1.417 0 0 0 .896 1.793 1.408 1.408 0 0 0 1.798-.896zm-9.072 8.23l-2.495 1.792c-.55.401-1.299.305-1.692-.248l-2.1-2.891.448-.399.55-.349 2.395-1.746.497-.396.501-.352 2.145 2.892c.396.548.298 1.299-.249 1.697zm.645 3.44c.597-.449.748-1.344.3-1.946-.449-.647-1.348-.796-1.998-.348-.646.499-.796 1.396-.297 1.995.451.649 1.35.799 1.995.299zm-12.217 1.346h-3.09a1.18 1.18 0 0 1-1.199-1.195v-3.591h4.839l.646-.051v3.642c0 .646-.546 1.195-1.196 1.195zm-1.55 3.193c-.748 0-1.395-.65-1.395-1.398 0-.796.601-1.445 1.395-1.445.801 0 1.449.649 1.449 1.396 0 .797-.647 1.447-1.449 1.447zm-10.617-6.085l-2.493-1.794c-.548-.399-.697-1.148-.3-1.697l2.091-2.943.504.399.546.351 2.393 1.746.502.347.544.399-2.096 2.893c-.395.549-1.143.699-1.691.299zm-3.093 1.696c.599.445 1.495.3 1.942-.35.499-.648.351-1.498-.296-1.997-.651-.446-1.547-.296-1.996.351-.447.648-.299 1.547.35 1.996zm-5.09-11.173l-.946-2.939c-.196-.648.152-1.297.75-1.545l3.441-1.1.198.551.206.599.893 2.842.199.599.2.598-3.392 1.146c-.648.2-1.296-.151-1.549-.751zm-3.489-.498a1.42 1.42 0 0 0 1.797.9c.746-.201 1.144-1.049.897-1.794a1.41 1.41 0 0 0-1.793-.899 1.415 1.415 0 0 0-.901 1.793zm7.98-13.415l-.895 2.796-.2.598-.201.649-3.445-1.098c-.596-.199-.943-.898-.745-1.496l.95-2.993c.194-.599.845-.948 1.495-.749l3.439 1.098-.199.549m-8.274-.351c-.254.751.199 1.547.941 1.795.753.201 1.55-.198 1.797-.947.202-.748-.197-1.544-.945-1.793s-1.544.198-1.793.945zm9.07-8.277l2.499-1.847c.495-.396 1.245-.248 1.645.25l2.146 2.892-.502.402-.501.346-2.391 1.796-.5.35-.498.396-2.146-2.889c-.399-.549-.298-1.295.248-1.696zm-.647-3.491a1.382 1.382 0 0 0-.297 1.994c.451.648 1.348.75 1.993.301.598-.451.75-1.347.298-1.996a1.437 1.437 0 0 0-1.994-.299z"></path></g><!----></svg>