<svg data-v-423bf9ae="" class="logo-abbr" width="52" height="52"  xmlns="http://www.w3.org/2000/svg" viewBox="0 0 217 90" class="iconLeft"><!----><!----><!----><g data-v-423bf9ae="" id="d9781967-8063-4906-9e98-6622333337d8" fill="#6366f1 " transform="matrix(6.849314889533817,0,0,6.849314889533817,104.85870774948451,-16.438357341757047)"><path d="M6.95 7.08L6.95 7.08L6.95 7.08Q6.95 7.66 6.70 8.18L6.70 8.18L6.70 8.18Q6.44 8.70 6.01 9.05L6.01 9.05L6.01 9.05Q5.57 9.40 5.00 9.60L5.00 9.60L5.00 9.60Q4.42 9.80 3.81 9.80L3.81 9.80L3.81 9.80Q3.55 9.80 3.12 9.78L3.12 9.78L3.00 9.21L3.36 9.19L3.36 9.19Q4.46 9.16 5.00 8.70L5.00 8.70L5.00 8.70Q5.54 8.24 5.54 7.33L5.54 7.33L5.54 7.33Q5.54 6.88 5.42 6.49L5.42 6.49L5.42 6.49Q5.30 6.11 5.05 5.80L5.05 5.80L5.05 5.80Q4.80 5.50 4.37 5.33L4.37 5.33L4.37 5.33Q3.94 5.15 3.38 5.15L3.38 5.15L2.69 5.20L2.69 12.33L4.30 12.60L4.21 13.17L0.16 13.17L0.23 12.67L1.38 12.35L1.38 5.62L0.21 5.42L0.27 4.89L0.27 4.89Q2.25 4.59 3.53 4.59L3.53 4.59L3.53 4.59Q6.95 4.59 6.95 7.08ZM11.90 12.45L11.90 12.45L11.90 12.45Q12.96 12.45 13.54 11.82L13.54 11.82L13.54 11.82Q14.12 11.18 14.13 9.88L14.13 9.88L14.14 5.48L12.89 5.19L12.96 4.67L16.24 4.67L16.15 5.19L15.02 5.46L14.98 9.65L14.98 9.65Q14.97 11.53 14.15 12.44L14.15 12.44L14.15 12.44Q13.32 13.35 11.56 13.35L11.56 13.35L11.56 13.35Q11.04 13.35 10.61 13.28L10.61 13.28L10.61 13.28Q10.17 13.21 9.71 12.99L9.71 12.99L9.71 12.99Q9.25 12.77 8.93 12.41L8.93 12.41L8.93 12.41Q8.62 12.04 8.42 11.42L8.42 11.42L8.42 11.42Q8.21 10.80 8.21 9.97L8.21 9.97L8.21 5.48L6.95 5.19L7.03 4.67L10.74 4.67L10.68 5.19L9.52 5.46L9.52 9.69L9.52 9.69Q9.52 11.09 10.16 11.77L10.16 11.77L10.16 11.77Q10.80 12.45 11.90 12.45Z"></path></g><!----><g data-v-423bf9ae="" id="4e1af137-4a6a-436d-b6e3-eb64e79945dd" transform="matrix(1.9219270885138002,0,0,1.9219270885138002,-4.40926707125508,-2.462176550535574)" stroke="none" fill="#B33EB3"><path clip-rule="evenodd" d="M21.605 23.13h6.832a2.664 2.664 0 0 1 2.646 2.644v7.98H29.73v-6.635h-1.39v6.635h-6.533v-6.635H20.36v6.635h-1.398v-7.98a2.664 2.664 0 0 1 2.643-2.644zm3.444-7.033c1.691 0 3.142 1.396 3.142 3.144 0 1.746-1.451 3.141-3.142 3.141a3.127 3.127 0 0 1-3.144-3.141 3.129 3.129 0 0 1 3.144-3.144zm-1.545-11.32h3.089c.647 0 1.198.549 1.198 1.198v3.642H22.308V5.975a1.18 1.18 0 0 1 1.196-1.198zm1.545-3.191c.745 0 1.396.647 1.396 1.446s-.651 1.398-1.396 1.398c-.799 0-1.449-.599-1.449-1.397s.65-1.447 1.449-1.447zm10.572 6.137l2.543 1.843c.494.399.644 1.145.246 1.645l-2.092 2.943-.501-.35-.549-.398-2.394-1.745-.499-.347-.548-.403 2.146-2.892c.4-.547 1.148-.648 1.648-.296zm3.141-1.649c-.646-.499-1.497-.348-1.998.3-.445.649-.298 1.545.35 1.993.603.45 1.497.3 1.945-.299a1.385 1.385 0 0 0-.297-1.994zm4.987 11.172l.997 2.944c.195.645-.152 1.293-.797 1.545l-3.439 1.094-.152-.599-.201-.597-.948-2.791-.202-.601-.198-.649 3.442-1.096c.598-.199 1.297.15 1.498.75zm3.538.498a1.415 1.415 0 0 0-1.797-.899c-.744.25-1.143 1.049-.947 1.794a1.414 1.414 0 0 0 1.797.899c.746-.247 1.197-1.047.947-1.794zm-2.541 11.967l-.95 2.992c-.198.598-.897.948-1.493.749l-3.442-1.099.198-.595.149-.599.948-2.842.201-.602.197-.598 3.395 1.097c.645.203.992.899.797 1.497zm2.541 2.494a1.415 1.415 0 0 0-.896-1.795 1.417 1.417 0 0 0-1.798.898 1.417 1.417 0 0 0 .896 1.793 1.408 1.408 0 0 0 1.798-.896zm-9.072 8.23l-2.495 1.792c-.55.401-1.299.305-1.692-.248l-2.1-2.891.448-.399.55-.349 2.395-1.746.497-.396.501-.352 2.145 2.892c.396.548.298 1.299-.249 1.697zm.645 3.44c.597-.449.748-1.344.3-1.946-.449-.647-1.348-.796-1.998-.348-.646.499-.796 1.396-.297 1.995.451.649 1.35.799 1.995.299zm-12.217 1.346h-3.09a1.18 1.18 0 0 1-1.199-1.195v-3.591h4.839l.646-.051v3.642c0 .646-.546 1.195-1.196 1.195zm-1.55 3.193c-.748 0-1.395-.65-1.395-1.398 0-.796.601-1.445 1.395-1.445.801 0 1.449.649 1.449 1.396 0 .797-.647 1.447-1.449 1.447zm-10.617-6.085l-2.493-1.794c-.548-.399-.697-1.148-.3-1.697l2.091-2.943.504.399.546.351 2.393 1.746.502.347.544.399-2.096 2.893c-.395.549-1.143.699-1.691.299zm-3.093 1.696c.599.445 1.495.3 1.942-.35.499-.648.351-1.498-.296-1.997-.651-.446-1.547-.296-1.996.351-.447.648-.299 1.547.35 1.996zm-5.09-11.173l-.946-2.939c-.196-.648.152-1.297.75-1.545l3.441-1.1.198.551.206.599.893 2.842.199.599.2.598-3.392 1.146c-.648.2-1.296-.151-1.549-.751zm-3.489-.498a1.42 1.42 0 0 0 1.797.9c.746-.201 1.144-1.049.897-1.794a1.41 1.41 0 0 0-1.793-.899 1.415 1.415 0 0 0-.901 1.793zm7.98-13.415l-.895 2.796-.2.598-.201.649-3.445-1.098c-.596-.199-.943-.898-.745-1.496l.95-2.993c.194-.599.845-.948 1.495-.749l3.439 1.098-.199.549m-8.274-.351c-.254.751.199 1.547.941 1.795.753.201 1.55-.198 1.797-.947.202-.748-.197-1.544-.945-1.793s-1.544.198-1.793.945zm9.07-8.277l2.499-1.847c.495-.396 1.245-.248 1.645.25l2.146 2.892-.502.402-.501.346-2.391 1.796-.5.35-.498.396-2.146-2.889c-.399-.549-.298-1.295.248-1.696zm-.647-3.491a1.382 1.382 0 0 0-.297 1.994c.451.648 1.348.75 1.993.301.598-.451.75-1.347.298-1.996a1.437 1.437 0 0 0-1.994-.299z"></path></g><!----></svg>