<svg data-v-423bf9ae="" xmlns="http://www.w3.org/2000/svg" viewBox="0 0 317.72942191229924 259" class="iconAbove"><!----><!----><!----><g data-v-423bf9ae="" id="7cd4307a-066e-4bd8-b73d-f72482309918" fill="white" transform="matrix(5.825242610575063,0,0,5.825242610575063,77.10743491177006,168.8275274000672)"><path d="M4.23 5.04L4.23 5.04Q5.03 5.04 5.52 5.19L5.52 5.19L5.52 5.19Q6.02 5.33 6.50 5.60L6.50 5.60L6.50 5.60Q6.65 5.68 6.77 5.74L6.77 5.74L6.77 5.74Q6.89 5.80 6.97 5.80L6.97 5.80L6.97 5.80Q7.10 5.80 7.17 5.65L7.17 5.65L7.17 5.65Q7.24 5.50 7.28 5.18L7.28 5.18L7.60 5.18L7.60 5.18Q7.53 6.19 7.53 8.60L7.53 8.60L7.21 8.60L7.21 8.60Q7.15 7.80 6.85 7.07L6.85 7.07L6.85 7.07Q6.54 6.34 6.01 5.88L6.01 5.88L6.01 5.88Q5.47 5.42 4.77 5.42L4.77 5.42L4.77 5.42Q4.13 5.42 3.74 5.76L3.74 5.76L3.74 5.76Q3.35 6.10 3.35 6.72L3.35 6.72L3.35 6.72Q3.35 7.20 3.56 7.55L3.56 7.55L3.56 7.55Q3.77 7.90 4.17 8.22L4.17 8.22L4.17 8.22Q4.58 8.55 5.50 9.20L5.50 9.20L5.50 9.20Q5.59 9.24 5.66 9.30L5.66 9.30L5.66 9.30Q5.74 9.35 5.81 9.41L5.81 9.41L5.81 9.41Q6.58 9.94 7.04 10.35L7.04 10.35L7.04 10.35Q7.50 10.77 7.79 11.31L7.79 11.31L7.79 11.31Q8.08 11.86 8.08 12.57L8.08 12.57L8.08 12.57Q8.08 13.48 7.57 14.11L7.57 14.11L7.57 14.11Q7.06 14.73 6.19 15.04L6.19 15.04L6.19 15.04Q5.32 15.34 4.27 15.34L4.27 15.34L4.27 15.34Q3.42 15.34 2.85 15.20L2.85 15.20L2.85 15.20Q2.28 15.06 1.79 14.83L1.79 14.83L1.79 14.83Q1.48 14.63 1.32 14.63L1.32 14.63L1.32 14.63Q1.19 14.63 1.12 14.78L1.12 14.78L1.12 14.78Q1.05 14.92 1.01 15.25L1.01 15.25L0.69 15.25L0.69 15.25Q0.74 14.29 0.74 11.19L0.74 11.19L1.06 11.19L1.06 11.19Q1.16 12.85 1.76 13.89L1.76 13.89L1.76 13.89Q2.37 14.92 3.61 14.92L3.61 14.92L3.61 14.92Q4.38 14.92 4.84 14.56L4.84 14.56L4.84 14.56Q5.29 14.20 5.29 13.55L5.29 13.55L5.29 13.55Q5.29 12.75 4.79 12.19L4.79 12.19L4.79 12.19Q4.30 11.62 3.25 10.92L3.25 10.92L3.25 10.92Q2.41 10.36 1.90 9.94L1.90 9.94L1.90 9.94Q1.40 9.52 1.08 8.97L1.08 8.97L1.08 8.97Q0.76 8.41 0.76 7.69L0.76 7.69L0.76 7.69Q0.76 6.80 1.23 6.21L1.23 6.21L1.23 6.21Q1.71 5.61 2.50 5.33L2.50 5.33L2.50 5.33Q3.29 5.04 4.23 5.04L4.23 5.04ZM14.52 5.04L14.52 5.04Q15.41 5.04 16.06 5.28L16.06 5.28L16.06 5.28Q16.70 5.52 17.23 5.95L17.23 5.95L17.23 5.95Q17.39 6.08 17.51 6.08L17.51 6.08L17.51 6.08Q17.65 6.08 17.74 5.87L17.74 5.87L17.74 5.87Q17.82 5.67 17.86 5.24L17.86 5.24L18.19 5.24L18.19 5.24Q18.13 6.23 18.13 8.74L18.13 8.74L17.81 8.74L17.81 8.74Q17.71 7.63 17.44 6.99L17.44 6.99L17.44 6.99Q17.18 6.34 16.52 5.89L16.52 5.89L16.52 5.89Q16.23 5.70 15.84 5.59L15.84 5.59L15.84 5.59Q15.46 5.47 15.08 5.47L15.08 5.47L15.08 5.47Q14.07 5.47 13.45 6.18L13.45 6.18L13.45 6.18Q12.82 6.89 12.57 7.97L12.57 7.97L12.57 7.97Q12.31 9.04 12.31 10.22L12.31 10.22L12.31 10.22Q12.31 12.66 12.90 13.86L12.90 13.86L12.90 13.86Q13.50 15.06 14.56 15.06L14.56 15.06L14.56 15.06Q14.99 15.06 15.25 14.90L15.25 14.90L15.25 14.90Q15.54 14.69 15.54 14.20L15.54 14.20L15.54 12.80L15.54 12.80Q15.54 12.10 15.43 11.77L15.43 11.77L15.43 11.77Q15.32 11.44 15.03 11.32L15.03 11.32L15.03 11.32Q14.74 11.20 14.13 11.17L14.13 11.17L14.13 10.89L14.13 10.89Q15.08 10.93 16.80 10.93L16.80 10.93L16.80 10.93Q18.24 10.93 18.96 10.89L18.96 10.89L18.96 11.17L18.96 11.17Q18.70 11.20 18.59 11.28L18.59 11.28L18.59 11.28Q18.47 11.37 18.42 11.61L18.42 11.61L18.42 11.61Q18.38 11.84 18.38 12.38L18.38 12.38L18.38 15.15L18.10 15.15L18.10 15.15Q18.09 14.85 17.98 14.60L17.98 14.60L17.98 14.60Q17.86 14.35 17.67 14.35L17.67 14.35L17.67 14.35Q17.37 14.35 16.72 14.67L16.72 14.67L16.72 14.67Q15.32 15.34 14.35 15.34L14.35 15.34L14.35 15.34Q11.75 15.34 10.42 14.03L10.42 14.03L10.42 14.03Q9.09 12.71 9.09 10.28L9.09 10.28L9.09 10.28Q9.09 8.74 9.78 7.55L9.78 7.55L9.78 7.55Q10.47 6.36 11.70 5.70L11.70 5.70L11.70 5.70Q12.94 5.04 14.52 5.04L14.52 5.04ZM27.38 5.24L27.38 5.24Q27.29 6.55 27.29 7.59L27.29 7.59L27.29 7.59Q27.29 8.23 27.33 8.60L27.33 8.60L27.01 8.60L27.01 8.60Q26.67 6.97 25.98 6.26L25.98 6.26L25.98 6.26Q25.28 5.56 24.43 5.56L24.43 5.56L24.25 5.56L24.25 5.56Q23.87 5.56 23.70 5.62L23.70 5.62L23.70 5.62Q23.52 5.68 23.46 5.86L23.46 5.86L23.46 5.86Q23.39 6.03 23.39 6.44L23.39 6.44L23.39 10.02L23.53 10.02L23.53 10.02Q24.26 10.02 24.78 9.45L24.78 9.45L24.78 9.45Q25.30 8.88 25.44 8.18L25.44 8.18L25.76 8.18L25.76 8.18Q25.72 8.76 25.72 9.49L25.72 9.49L25.72 10.16L25.72 10.16Q25.72 10.88 25.80 12.15L25.80 12.15L25.48 12.15L25.48 12.15Q25.35 11.35 24.83 10.83L24.83 10.83L24.83 10.83Q24.30 10.30 23.53 10.30L23.53 10.30L23.39 10.30L23.39 13.52L23.39 13.52Q23.39 14.11 23.51 14.38L23.51 14.38L23.51 14.38Q23.63 14.64 23.95 14.73L23.95 14.73L23.95 14.73Q24.26 14.83 24.95 14.83L24.95 14.83L24.95 15.15L24.95 15.15Q23.06 15.11 22.06 15.11L22.06 15.11L22.06 15.11Q21.41 15.11 20.23 15.13L20.23 15.13L19.56 15.15L19.56 14.87L19.56 14.87Q20.01 14.84 20.21 14.76L20.21 14.76L20.21 14.76Q20.41 14.67 20.48 14.43L20.48 14.43L20.48 14.43Q20.55 14.20 20.55 13.66L20.55 13.66L20.55 6.72L20.55 6.72Q20.55 6.19 20.48 5.95L20.48 5.95L20.48 5.95Q20.40 5.71 20.20 5.63L20.20 5.63L20.20 5.63Q20.01 5.54 19.56 5.52L19.56 5.52L19.56 5.24L19.56 5.24Q21.18 5.28 24.46 5.28L24.46 5.28L24.46 5.28Q26.52 5.28 27.38 5.24L27.38 5.24Z"></path></g><!----><g data-v-423bf9ae="" id="9378eee7-de3b-407a-85c0-0453627a538e" transform="matrix(1.434444342719184,0,0,1.434444342719184,182.09249839782714,66.2607310375632)" stroke="none" fill="white"><path d="M-99.2-33.7l-3.7 5.7c-5-4.8-10.8-8.8-17.2-11.9l3.3-5.2c.3-.4.7-.6 1.1-.6.2 0 .5.1.7.2l15.3 9.9c.8.4.9 1.3.5 1.9z"></path><path d="M-126.4-42.7h-.1.1zM-126.5-42.7c.1 0 .1 0 0 0z"></path><g><path d="M18.1 50.4c-4.9 0-8.9 1.3-11.1 3.5-1.3 1.3-2 2.8-2 4.5v17c0 4.7 5.4 8 13.1 8 7.7 0 13.1-3.3 13.1-8v-17 0c0-1.7-.7-3.2-2-4.5-2.2-2.2-6.2-3.5-11.1-3.5zm9.5 24.9c0 2.4-4.2 4.3-9.5 4.3s-9.5-1.9-9.5-4.3v-2.7c2.3 1.4 5.6 2.2 9.5 2.2s7.1-.8 9.5-2.2v2.7zm0-8.5c0 2.4-4.2 4.3-9.5 4.3s-9.5-1.9-9.5-4.3v-2.7c2.3 1.4 5.6 2.2 9.5 2.2 3.9 0 7.1-.8 9.5-2.2v2.7zm0-8.4v.7c0 .1-.1.3-.2.4 0 .1-.1.1-.1.2-.1.1-.2.2-.2.3l-.3.3-.2.2c-.1.1-.2.2-.4.3-1.7 1.2-4.6 2-8 2-4.9 0-8.9-1.7-9.4-3.8v-.1-.4c0-2.4 4.2-4.3 9.5-4.3 5.1-.1 9.3 1.8 9.3 4.2zM50 33.5c-4.9 0-8.9 1.3-11.1 3.5-1.3 1.3-2 2.8-2 4.5v33.9c0 4.7 5.4 8 13.1 8 7.7 0 13.1-3.3 13.1-8V67v-8.5-17.1 0c0-1.7-.7-3.2-2-4.5-2.2-2.1-6.2-3.4-11.1-3.4zm9.5 41.8c0 2.4-4.2 4.3-9.5 4.3s-9.5-1.9-9.5-4.3v-2.7c2.3 1.4 5.6 2.2 9.5 2.2s7.1-.8 9.5-2.2v2.7zm0-8.5c0 2.4-4.2 4.3-9.5 4.3s-9.5-1.9-9.5-4.3v-2.7c2.3 1.4 5.6 2.2 9.5 2.2s7.1-.8 9.5-2.2v2.7zm0-8.4c0 2.4-4.2 4.3-9.5 4.3s-9.5-1.9-9.5-4.3v-2.7c2.3 1.4 5.6 2.2 9.5 2.2s7.1-.8 9.5-2.2v2.7zm0-8.5c0 2.4-4.2 4.3-9.5 4.3s-9.5-1.9-9.5-4.3v-2.7c2.3 1.4 5.6 2.2 9.5 2.2 3.9 0 7.1-.8 9.5-2.2v2.7zm0-8.4v.7c0 .1-.1.3-.2.4 0 .1-.1.1-.1.2-.1.1-.2.2-.2.3l-.3.3-.2.2c-.1.1-.2.2-.4.3-1.7 1.2-4.6 2-8 2-4.9 0-8.9-1.7-9.4-3.8V42v-.4c0-2.4 4.2-4.3 9.5-4.3 5-.1 9.3 1.8 9.3 4.2zM95 24.7c0-1.7-.7-3.2-2-4.5-2.2-2.2-6.2-3.5-11.1-3.5-4.9 0-8.9 1.3-11.1 3.5-1.3 1.2-2 2.8-2 4.5v50.7c0 4.7 5.4 8 13.1 8 7.7 0 13.1-3.3 13.1-8V67v-8.5V50 24.7zm-3.7 50.6c0 2.4-4.2 4.3-9.5 4.3s-9.5-1.9-9.5-4.3v-2.7c2.3 1.4 5.6 2.2 9.5 2.2s7.1-.8 9.5-2.2v2.7zm0-8.5c0 2.4-4.2 4.3-9.5 4.3s-9.5-1.9-9.5-4.3v-2.7c2.3 1.4 5.6 2.2 9.5 2.2s7.1-.8 9.5-2.2v2.7zm0-8.4c0 2.4-4.2 4.3-9.5 4.3s-9.5-1.9-9.5-4.3v-2.7c2.3 1.4 5.6 2.2 9.5 2.2s7.1-.8 9.5-2.2v2.7zm0-8.5c0 2.4-4.2 4.3-9.5 4.3s-9.5-1.9-9.5-4.3v-2.7c2.3 1.4 5.6 2.2 9.5 2.2s7.1-.8 9.5-2.2v2.7zm0-8.4c0 2.4-4.2 4.3-9.5 4.3s-9.5-1.9-9.5-4.3v-2.7c2.3 1.4 5.6 2.2 9.5 2.2s7.1-.8 9.5-2.2v2.7zm0-8.4c0 2.4-4.2 4.3-9.5 4.3s-9.5-1.9-9.5-4.3v-2.6c2.3 1.4 5.6 2.2 9.5 2.2 3.9 0 7.1-.8 9.5-2.2v2.6zm0-8.4v.7c0 .1-.1.3-.2.4 0 .1-.1.1-.1.2-.1.1-.2.2-.2.3l-.3.3-.2.2c-.1.1-.2.2-.4.3-1.7 1.2-4.6 2-8 2-4.9 0-8.9-1.7-9.4-3.8v-.1-.4c0-2.4 4.2-4.3 9.5-4.3 5.1-.1 9.3 1.8 9.3 4.2z"></path></g></g><!----></svg>