<svg data-v-423bf9ae="" xmlns="http://www.w3.org/2000/svg" viewBox="0 0 258.225659945853 60" class="font"><!----><!----><!----><g data-v-423bf9ae="" id="2e30a831-56d7-4003-91b2-a69e9f02dcec" fill="black" transform="matrix(5.785920989599432,0,0,5.785920989599432,-3.7029898043445257,-40.32787131935278)"><path d="M7.79 8.38L6.45 9.42L6.21 9.34L6.21 9.34Q6.11 8.58 5.63 8.04L5.63 8.04L5.63 8.04Q5.15 7.50 4.34 7.50L4.34 7.50L4.34 7.50Q3.68 7.50 3.28 7.91L3.28 7.91L3.28 7.91Q2.88 8.32 2.88 8.91L2.88 8.91L2.88 8.91Q2.88 9.26 3.02 9.57L3.02 9.57L3.02 9.57Q3.16 9.88 3.35 10.11L3.35 10.11L3.35 10.11Q3.54 10.33 3.87 10.56L3.87 10.56L3.87 10.56Q4.20 10.79 4.44 10.93L4.44 10.93L4.44 10.93Q4.69 11.07 5.08 11.27L5.08 11.27L5.08 11.27Q5.63 11.55 6.00 11.76L6.00 11.76L6.00 11.76Q6.36 11.97 6.72 12.24L6.72 12.24L6.72 12.24Q7.09 12.52 7.29 12.78L7.29 12.78L7.29 12.78Q7.50 13.04 7.63 13.38L7.63 13.38L7.63 13.38Q7.76 13.72 7.76 14.11L7.76 14.11L7.76 14.11Q7.76 14.80 7.37 15.41L7.37 15.41L7.37 15.41Q6.97 16.02 6.35 16.42L6.35 16.42L6.35 16.42Q5.73 16.82 4.97 17.06L4.97 17.06L4.97 17.06Q4.21 17.29 3.47 17.29L3.47 17.29L3.47 17.29Q2.61 17.29 1.87 16.92L1.87 16.92L1.87 16.92Q1.12 16.56 0.64 15.87L0.64 15.87L2.00 14.35L2.27 14.44L2.27 14.44Q2.27 15.29 2.83 15.94L2.83 15.94L2.83 15.94Q3.38 16.60 4.27 16.60L4.27 16.60L4.27 16.60Q5.01 16.60 5.54 16.07L5.54 16.07L5.54 16.07Q6.06 15.55 6.06 14.88L6.06 14.88L6.06 14.88Q6.06 14.24 5.30 13.54L5.30 13.54L5.30 13.54Q5.09 13.33 4.67 13.08L4.67 13.08L4.67 13.08Q4.25 12.83 3.82 12.62L3.82 12.62L3.82 12.62Q3.40 12.40 2.94 12.10L2.94 12.10L2.94 12.10Q2.48 11.79 2.14 11.48L2.14 11.48L2.14 11.48Q1.79 11.18 1.56 10.74L1.56 10.74L1.56 10.74Q1.33 10.29 1.33 9.81L1.33 9.81L1.33 9.81Q1.33 9.08 1.64 8.51L1.64 8.51L1.64 8.51Q1.95 7.95 2.47 7.62L2.47 7.62L2.47 7.62Q2.99 7.29 3.63 7.13L3.63 7.13L3.63 7.13Q4.26 6.97 4.97 6.97L4.97 6.97L4.97 6.97Q6.09 6.97 6.78 7.29L6.78 7.29L6.78 7.29Q7.47 7.62 7.79 8.38L7.79 8.38ZM16.88 7.19L16.89 7.36L12.93 12.56L12.93 12.56Q12.93 14.15 13.06 16.70L13.06 16.70L11.46 17.14L11.21 17.02L11.21 17.02Q11.22 16.39 11.25 15.37L11.25 15.37L11.25 15.37Q11.27 14.35 11.28 13.64L11.28 13.64L11.28 13.64Q11.29 12.94 11.29 12.93L11.29 12.93L11.29 12.93Q11.29 12.93 10.94 12.23L10.94 12.23L10.94 12.23Q10.59 11.53 10.09 10.54L10.09 10.54L10.09 10.54Q9.60 9.56 9.32 9.02L9.32 9.02L9.32 9.02Q9.30 9.00 9.23 8.86L9.23 8.86L9.23 8.86Q9.16 8.72 9.14 8.68L9.14 8.68L9.14 8.68Q9.11 8.63 9.04 8.51L9.04 8.51L9.04 8.51Q8.97 8.39 8.93 8.34L8.93 8.34L8.93 8.34Q8.89 8.29 8.82 8.19L8.82 8.19L8.82 8.19Q8.74 8.10 8.69 8.05L8.69 8.05L8.69 8.05Q8.63 8.00 8.54 7.96L8.54 7.96L8.54 7.96Q8.46 7.91 8.38 7.89L8.38 7.89L7.74 7.72L7.74 7.36L7.85 7.23L10.41 7.23L10.41 7.23Q10.45 7.33 10.81 8.06L10.81 8.06L10.81 8.06Q11.17 8.78 11.71 9.85L11.71 9.85L11.71 9.85Q12.24 10.92 12.51 11.46L12.51 11.46L12.51 11.46Q12.55 11.55 12.68 11.55L12.68 11.55L12.68 11.55Q12.78 11.55 12.84 11.48L12.84 11.48L15.45 7.43L16.88 7.19ZM24.14 8.38L22.81 9.42L22.57 9.34L22.57 9.34Q22.47 8.58 21.99 8.04L21.99 8.04L21.99 8.04Q21.51 7.50 20.70 7.50L20.70 7.50L20.70 7.50Q20.04 7.50 19.64 7.91L19.64 7.91L19.64 7.91Q19.24 8.32 19.24 8.91L19.24 8.91L19.24 8.91Q19.24 9.26 19.38 9.57L19.38 9.57L19.38 9.57Q19.52 9.88 19.71 10.11L19.71 10.11L19.71 10.11Q19.90 10.33 20.23 10.56L20.23 10.56L20.23 10.56Q20.56 10.79 20.80 10.93L20.80 10.93L20.80 10.93Q21.05 11.07 21.44 11.27L21.44 11.27L21.44 11.27Q21.99 11.55 22.35 11.76L22.35 11.76L22.35 11.76Q22.72 11.97 23.08 12.24L23.08 12.24L23.08 12.24Q23.45 12.52 23.65 12.78L23.65 12.78L23.65 12.78Q23.86 13.04 23.99 13.38L23.99 13.38L23.99 13.38Q24.12 13.72 24.12 14.11L24.12 14.11L24.12 14.11Q24.12 14.80 23.72 15.41L23.72 15.41L23.72 15.41Q23.33 16.02 22.71 16.42L22.71 16.42L22.71 16.42Q22.09 16.82 21.33 17.06L21.33 17.06L21.33 17.06Q20.57 17.29 19.83 17.29L19.83 17.29L19.83 17.29Q18.97 17.29 18.22 16.92L18.22 16.92L18.22 16.92Q17.48 16.56 17.00 15.87L17.00 15.87L18.36 14.35L18.63 14.44L18.63 14.44Q18.63 15.29 19.19 15.94L19.19 15.94L19.19 15.94Q19.74 16.60 20.63 16.60L20.63 16.60L20.63 16.60Q21.37 16.60 21.90 16.07L21.90 16.07L21.90 16.07Q22.42 15.55 22.42 14.88L22.42 14.88L22.42 14.88Q22.42 14.24 21.66 13.54L21.66 13.54L21.66 13.54Q21.44 13.33 21.02 13.08L21.02 13.08L21.02 13.08Q20.60 12.83 20.18 12.62L20.18 12.62L20.18 12.62Q19.76 12.40 19.30 12.10L19.30 12.10L19.30 12.10Q18.84 11.79 18.49 11.48L18.49 11.48L18.49 11.48Q18.15 11.18 17.92 10.74L17.92 10.74L17.92 10.74Q17.69 10.29 17.69 9.81L17.69 9.81L17.69 9.81Q17.69 9.08 18.00 8.51L18.00 8.51L18.00 8.51Q18.31 7.95 18.83 7.62L18.83 7.62L18.83 7.62Q19.35 7.29 19.98 7.13L19.98 7.13L19.98 7.13Q20.62 6.97 21.33 6.97L21.33 6.97L21.33 6.97Q22.45 6.97 23.14 7.29L23.14 7.29L23.14 7.29Q23.83 7.62 24.14 8.38L24.14 8.38ZM34.50 8.90L34.50 8.90L33.18 10.10L32.96 10.06L32.96 10.06Q32.83 9.58 32.62 9.19L32.62 9.19L32.62 9.19Q32.42 8.80 32.12 8.47L32.12 8.47L32.12 8.47Q31.81 8.13 31.36 7.95L31.36 7.95L31.36 7.95Q30.91 7.77 30.35 7.77L30.35 7.77L30.35 7.77Q29.78 7.77 29.30 7.96L29.30 7.96L29.30 7.96Q28.81 8.16 28.48 8.49L28.48 8.49L28.48 8.49Q28.15 8.83 27.90 9.26L27.90 9.26L27.90 9.26Q27.66 9.68 27.52 10.17L27.52 10.17L27.52 10.17Q27.38 10.66 27.31 11.13L27.31 11.13L27.31 11.13Q27.25 11.59 27.25 12.05L27.25 12.05L27.25 12.05Q27.25 12.67 27.37 13.27L27.37 13.27L27.37 13.27Q27.49 13.88 27.78 14.46L27.78 14.46L27.78 14.46Q28.06 15.05 28.47 15.50L28.47 15.50L28.47 15.50Q28.88 15.94 29.51 16.21L29.51 16.21L29.51 16.21Q30.14 16.49 30.90 16.49L30.90 16.49L30.90 16.49Q32.29 16.49 34.09 15.61L34.09 15.61L34.38 15.96L34.38 15.96Q32.41 17.34 30.32 17.34L30.32 17.34L30.32 17.34Q29.21 17.34 28.32 17.07L28.32 17.07L28.32 17.07Q27.43 16.80 26.85 16.34L26.85 16.34L26.85 16.34Q26.28 15.88 25.89 15.24L25.89 15.24L25.89 15.24Q25.51 14.61 25.35 13.92L25.35 13.92L25.35 13.92Q25.19 13.23 25.19 12.46L25.19 12.46L25.19 12.46Q25.19 9.98 26.66 8.65L26.66 8.65L26.66 8.65Q27.47 7.92 28.53 7.53L28.53 7.53L28.53 7.53Q29.59 7.14 30.73 7.14L30.73 7.14L30.73 7.14Q32.09 7.14 32.99 7.55L32.99 7.55L32.99 7.55Q33.89 7.96 34.50 8.90ZM34.77 12.47L34.77 12.47L34.77 12.47Q34.77 11.27 35.19 10.15L35.19 10.15L35.19 10.15Q35.62 9.04 36.47 8.27L36.47 8.27L36.47 8.27Q37.24 7.57 38.25 7.29L38.25 7.29L38.25 7.29Q39.27 7.01 40.62 7.01L40.62 7.01L40.62 7.01Q42.70 7.01 43.88 8.07L43.88 8.07L43.88 8.07Q45.27 9.34 45.27 11.61L45.27 11.61L45.27 11.61Q45.27 12.80 44.95 13.77L44.95 13.77L44.95 13.77Q44.63 14.74 44.06 15.39L44.06 15.39L44.06 15.39Q43.50 16.04 42.73 16.47L42.73 16.47L42.73 16.47Q41.95 16.91 41.08 17.11L41.08 17.11L41.08 17.11Q40.20 17.30 39.22 17.30L39.22 17.30L39.22 17.30Q37.32 17.30 36.18 16.26L36.18 16.26L36.18 16.26Q35.44 15.59 35.11 14.59L35.11 14.59L35.11 14.59Q34.77 13.59 34.77 12.47ZM36.71 11.96L36.71 11.96L36.71 11.96Q36.71 12.57 36.81 13.19L36.81 13.19L36.81 13.19Q36.92 13.81 37.18 14.44L37.18 14.44L37.18 14.44Q37.43 15.08 37.81 15.56L37.81 15.56L37.81 15.56Q38.19 16.04 38.79 16.35L38.79 16.35L38.79 16.35Q39.39 16.66 40.13 16.66L40.13 16.66L40.13 16.66Q40.84 16.66 41.40 16.41L41.40 16.41L41.40 16.41Q41.95 16.17 42.30 15.77L42.30 15.77L42.30 15.77Q42.65 15.37 42.88 14.82L42.88 14.82L42.88 14.82Q43.10 14.27 43.19 13.71L43.19 13.71L43.19 13.71Q43.28 13.15 43.28 12.54L43.28 12.54L43.28 12.54Q43.28 12.09 43.24 11.65L43.24 11.65L43.24 11.65Q43.20 11.20 43.09 10.70L43.09 10.70L43.09 10.70Q42.98 10.21 42.82 9.76L42.82 9.76L42.82 9.76Q42.66 9.32 42.40 8.91L42.40 8.91L42.40 8.91Q42.14 8.50 41.81 8.21L41.81 8.21L41.81 8.21Q41.48 7.92 41.02 7.74L41.02 7.74L41.02 7.74Q40.56 7.57 40.02 7.57L40.02 7.57L40.02 7.57Q39.37 7.57 38.81 7.84L38.81 7.84L38.81 7.84Q38.25 8.11 37.87 8.55L37.87 8.55L37.87 8.55Q37.50 8.99 37.23 9.57L37.23 9.57L37.23 9.57Q36.96 10.14 36.83 10.75L36.83 10.75L36.83 10.75Q36.71 11.36 36.71 11.96Z"></path></g><!----><!----></svg>